# MagicaVoxel @ Ephtracy

# group
o 

# material
mtllib sword.mtl
usemtl palette

# normals
vn -1 0 0
vn 1 0 0
vn 0 0 1
vn 0 0 -1
vn 0 -1 0
vn 0 1 0

# texcoords
vt 0.310547 0.5
vt 0.982422 0.5
vt 0.990234 0.5

# verts
v -0.2 0.6 0.1
v -0.2 0.6 -0.1
v -0.2 0.7 0.1
v -0.2 0.7 -0.1
v -0.1 0 0.1
v -0.1 0 -0.1
v -0.1 0.1 0.2
v -0.1 0.1 0.1
v -0.1 0.1 -0.1
v -0.1 0.1 -0.2
v -0.1 0.2 0.2
v -0.1 0.2 -0.2
v -0.1 0.6 0.2
v -0.1 0.6 0.1
v -0.1 0.6 -0.1
v -0.1 0.6 -0.2
v -0.1 0.7 0.2
v -0.1 0.7 0.1
v -0.1 0.7 -0.1
v -0.1 0.7 -0.2
v 0 0 0.2
v 0 0 0.1
v 0 0 -0.1
v 0 0 -0.2
v 0 0.1 0.2
v 0 0.1 0.1
v 0 0.1 -0.1
v 0 0.1 -0.2
v 0 0.2 0.1
v 0 0.2 -0.1
v 0 0.6 0.1
v 0 0.6 -0.1
v 0 0.7 0.1
v 0 0.7 -0.1
v 0 1.8 0
v 0 1.8 -0.1
v 0 2 0.1
v 0 2 0
v 0.1 0 0.2
v 0.1 0 0.1
v 0.1 0 -0.1
v 0.1 0 -0.2
v 0.1 0.1 0.2
v 0.1 0.1 0.1
v 0.1 0.1 -0.1
v 0.1 0.1 -0.2
v 0.1 0.2 0.1
v 0.1 0.2 -0.1
v 0.1 0.6 0.1
v 0.1 0.6 -0.1
v 0.1 0.7 0.1
v 0.1 0.7 -0.1
v 0.1 1.8 0
v 0.1 1.8 -0.1
v 0.1 2 0.1
v 0.1 2 0
v 0.2 0 0.1
v 0.2 0 -0.1
v 0.2 0.1 0.2
v 0.2 0.1 0.1
v 0.2 0.1 -0.1
v 0.2 0.1 -0.2
v 0.2 0.2 0.2
v 0.2 0.2 -0.2
v 0.2 0.6 0.2
v 0.2 0.6 0.1
v 0.2 0.6 -0.1
v 0.2 0.6 -0.2
v 0.2 0.7 0.2
v 0.2 0.7 0.1
v 0.2 0.7 -0.1
v 0.2 0.7 -0.2
v 0.3 0.6 0.1
v 0.3 0.6 -0.1
v 0.3 0.7 0.1
v 0.3 0.7 -0.1
v -0.1 0.1 0.2
v -0.1 0.2 0.2
v -0.1 0.6 0.2
v -0.1 0.7 0.2
v 0 0 0.2
v 0 0.1 0.2
v 0.1 0 0.2
v 0.1 0.1 0.2
v 0.2 0.1 0.2
v 0.2 0.2 0.2
v 0.2 0.6 0.2
v 0.2 0.7 0.2
v -0.2 0.6 0.1
v -0.2 0.7 0.1
v -0.1 0 0.1
v -0.1 0.1 0.1
v -0.1 0.6 0.1
v -0.1 0.7 0.1
v 0 0 0.1
v 0 0.1 0.1
v 0 0.2 0.1
v 0 0.6 0.1
v 0 0.7 0.1
v 0 2 0.1
v 0.1 0 0.1
v 0.1 0.1 0.1
v 0.1 0.2 0.1
v 0.1 0.6 0.1
v 0.1 0.7 0.1
v 0.1 2 0.1
v 0.2 0 0.1
v 0.2 0.1 0.1
v 0.2 0.6 0.1
v 0.2 0.7 0.1
v 0.3 0.6 0.1
v 0.3 0.7 0.1
v 0 1.8 0
v 0 2 0
v 0.1 1.8 0
v 0.1 2 0
v -0.2 0.6 -0.1
v -0.2 0.7 -0.1
v -0.1 0 -0.1
v -0.1 0.1 -0.1
v -0.1 0.6 -0.1
v -0.1 0.7 -0.1
v 0 0 -0.1
v 0 0.1 -0.1
v 0 0.2 -0.1
v 0 0.6 -0.1
v 0 0.7 -0.1
v 0 1.8 -0.1
v 0.1 0 -0.1
v 0.1 0.1 -0.1
v 0.1 0.2 -0.1
v 0.1 0.6 -0.1
v 0.1 0.7 -0.1
v 0.1 1.8 -0.1
v 0.2 0 -0.1
v 0.2 0.1 -0.1
v 0.2 0.6 -0.1
v 0.2 0.7 -0.1
v 0.3 0.6 -0.1
v 0.3 0.7 -0.1
v -0.1 0.1 -0.2
v -0.1 0.2 -0.2
v -0.1 0.6 -0.2
v -0.1 0.7 -0.2
v 0 0 -0.2
v 0 0.1 -0.2
v 0.1 0 -0.2
v 0.1 0.1 -0.2
v 0.2 0.1 -0.2
v 0.2 0.2 -0.2
v 0.2 0.6 -0.2
v 0.2 0.7 -0.2
v 0 0 0.2
v 0.1 0 0.2
v -0.1 0 0.1
v 0 0 0.1
v 0.1 0 0.1
v 0.2 0 0.1
v -0.1 0 -0.1
v 0 0 -0.1
v 0.1 0 -0.1
v 0.2 0 -0.1
v 0 0 -0.2
v 0.1 0 -0.2
v -0.1 0.1 0.2
v 0 0.1 0.2
v 0.1 0.1 0.2
v 0.2 0.1 0.2
v -0.1 0.1 0.1
v 0 0.1 0.1
v 0.1 0.1 0.1
v 0.2 0.1 0.1
v -0.1 0.1 -0.1
v 0 0.1 -0.1
v 0.1 0.1 -0.1
v 0.2 0.1 -0.1
v -0.1 0.1 -0.2
v 0 0.1 -0.2
v 0.1 0.1 -0.2
v 0.2 0.1 -0.2
v -0.1 0.6 0.2
v 0.2 0.6 0.2
v -0.2 0.6 0.1
v -0.1 0.6 0.1
v 0 0.6 0.1
v 0.1 0.6 0.1
v 0.2 0.6 0.1
v 0.3 0.6 0.1
v -0.2 0.6 -0.1
v -0.1 0.6 -0.1
v 0 0.6 -0.1
v 0.1 0.6 -0.1
v 0.2 0.6 -0.1
v 0.3 0.6 -0.1
v -0.1 0.6 -0.2
v 0.2 0.6 -0.2
v -0.1 0.2 0.2
v 0.2 0.2 0.2
v 0 0.2 0.1
v 0.1 0.2 0.1
v 0 0.2 -0.1
v 0.1 0.2 -0.1
v -0.1 0.2 -0.2
v 0.2 0.2 -0.2
v -0.1 0.7 0.2
v 0.2 0.7 0.2
v -0.2 0.7 0.1
v -0.1 0.7 0.1
v 0 0.7 0.1
v 0.1 0.7 0.1
v 0.2 0.7 0.1
v 0.3 0.7 0.1
v -0.2 0.7 -0.1
v -0.1 0.7 -0.1
v 0 0.7 -0.1
v 0.1 0.7 -0.1
v 0.2 0.7 -0.1
v 0.3 0.7 -0.1
v -0.1 0.7 -0.2
v 0.2 0.7 -0.2
v 0 1.8 0
v 0.1 1.8 0
v 0 1.8 -0.1
v 0.1 1.8 -0.1
v 0 2 0.1
v 0.1 2 0.1
v 0 2 0
v 0.1 2 0

# faces
f 3/3/1 2/3/1 1/3/1
f 4/3/1 2/3/1 3/3/1
f 8/3/1 6/3/1 5/3/1
f 9/3/1 6/3/1 8/3/1
f 11/3/1 8/3/1 7/3/1
f 11/3/1 10/3/1 9/3/1
f 11/3/1 9/3/1 8/3/1
f 12/3/1 10/3/1 11/3/1
f 17/3/1 14/3/1 13/3/1
f 18/3/1 14/3/1 17/3/1
f 19/3/1 16/3/1 15/3/1
f 20/3/1 16/3/1 19/3/1
f 25/3/1 22/3/1 21/3/1
f 26/3/1 22/3/1 25/3/1
f 27/3/1 24/3/1 23/3/1
f 28/3/1 24/3/1 27/3/1
f 31/1/1 30/1/1 29/1/1
f 32/1/1 30/1/1 31/1/1
f 35/2/1 34/2/1 33/2/1
f 36/2/1 34/2/1 35/2/1
f 37/2/1 35/2/1 33/2/1
f 38/2/1 35/2/1 37/2/1
f 39/3/2 40/3/2 43/3/2
f 43/3/2 40/3/2 44/3/2
f 41/3/2 42/3/2 45/3/2
f 45/3/2 42/3/2 46/3/2
f 47/1/2 48/1/2 49/1/2
f 49/1/2 48/1/2 50/1/2
f 51/2/2 52/2/2 53/2/2
f 53/2/2 52/2/2 54/2/2
f 51/2/2 53/2/2 55/2/2
f 55/2/2 53/2/2 56/2/2
f 57/3/2 58/3/2 60/3/2
f 60/3/2 58/3/2 61/3/2
f 59/3/2 60/3/2 63/3/2
f 61/3/2 62/3/2 63/3/2
f 60/3/2 61/3/2 63/3/2
f 63/3/2 62/3/2 64/3/2
f 65/3/2 66/3/2 69/3/2
f 69/3/2 66/3/2 70/3/2
f 67/3/2 68/3/2 71/3/2
f 71/3/2 68/3/2 72/3/2
f 73/3/2 74/3/2 75/3/2
f 75/3/2 74/3/2 76/3/2
f 82/3/3 78/3/3 77/3/3
f 83/3/3 82/3/3 81/3/3
f 84/3/3 78/3/3 82/3/3
f 84/3/3 82/3/3 83/3/3
f 85/3/3 78/3/3 84/3/3
f 86/3/3 78/3/3 85/3/3
f 87/3/3 80/3/3 79/3/3
f 88/3/3 80/3/3 87/3/3
f 93/3/3 90/3/3 89/3/3
f 94/3/3 90/3/3 93/3/3
f 95/3/3 92/3/3 91/3/3
f 96/3/3 92/3/3 95/3/3
f 103/1/3 98/1/3 97/1/3
f 104/1/3 98/1/3 103/1/3
f 105/2/3 100/2/3 99/2/3
f 106/2/3 100/2/3 105/2/3
f 107/3/3 102/3/3 101/3/3
f 108/3/3 102/3/3 107/3/3
f 111/3/3 110/3/3 109/3/3
f 112/3/3 110/3/3 111/3/3
f 113/2/4 114/2/4 115/2/4
f 115/2/4 114/2/4 116/2/4
f 117/3/4 118/3/4 121/3/4
f 121/3/4 118/3/4 122/3/4
f 119/3/4 120/3/4 123/3/4
f 123/3/4 120/3/4 124/3/4
f 125/1/4 126/1/4 131/1/4
f 131/1/4 126/1/4 132/1/4
f 127/2/4 128/2/4 133/2/4
f 133/2/4 128/2/4 134/2/4
f 129/3/4 130/3/4 135/3/4
f 135/3/4 130/3/4 136/3/4
f 137/3/4 138/3/4 139/3/4
f 139/3/4 138/3/4 140/3/4
f 141/3/4 142/3/4 146/3/4
f 145/3/4 146/3/4 147/3/4
f 146/3/4 142/3/4 148/3/4
f 147/3/4 146/3/4 148/3/4
f 148/3/4 142/3/4 149/3/4
f 149/3/4 142/3/4 150/3/4
f 143/3/4 144/3/4 151/3/4
f 151/3/4 144/3/4 152/3/4
f 156/3/5 154/3/5 153/3/5
f 157/3/5 154/3/5 156/3/5
f 159/3/5 156/3/5 155/3/5
f 159/3/5 158/3/5 157/3/5
f 159/3/5 157/3/5 156/3/5
f 160/3/5 158/3/5 159/3/5
f 161/3/5 158/3/5 160/3/5
f 162/3/5 158/3/5 161/3/5
f 163/3/5 161/3/5 160/3/5
f 164/3/5 161/3/5 163/3/5
f 169/3/5 166/3/5 165/3/5
f 170/3/5 166/3/5 169/3/5
f 171/3/5 168/3/5 167/3/5
f 172/3/5 168/3/5 171/3/5
f 177/3/5 174/3/5 173/3/5
f 178/3/5 174/3/5 177/3/5
f 179/3/5 176/3/5 175/3/5
f 180/3/5 176/3/5 179/3/5
f 184/3/5 182/3/5 181/3/5
f 185/3/5 182/3/5 184/3/5
f 186/3/5 182/3/5 185/3/5
f 187/3/5 182/3/5 186/3/5
f 189/3/5 184/3/5 183/3/5
f 189/3/5 185/3/5 184/3/5
f 190/3/5 185/3/5 189/3/5
f 191/3/5 185/3/5 190/3/5
f 192/3/5 188/3/5 187/3/5
f 192/3/5 187/3/5 186/3/5
f 193/3/5 188/3/5 192/3/5
f 194/3/5 188/3/5 193/3/5
f 195/3/5 191/3/5 190/3/5
f 195/3/5 193/3/5 192/3/5
f 195/3/5 192/3/5 191/3/5
f 196/3/5 193/3/5 195/3/5
f 197/3/6 198/3/6 199/3/6
f 199/3/6 198/3/6 200/3/6
f 197/3/6 199/3/6 201/3/6
f 200/3/6 198/3/6 202/3/6
f 197/3/6 201/3/6 203/3/6
f 201/3/6 202/3/6 203/3/6
f 202/3/6 198/3/6 204/3/6
f 203/3/6 202/3/6 204/3/6
f 205/3/6 206/3/6 208/3/6
f 208/3/6 206/3/6 209/3/6
f 209/3/6 206/3/6 210/3/6
f 210/3/6 206/3/6 211/3/6
f 207/3/6 208/3/6 213/3/6
f 208/3/6 209/3/6 213/3/6
f 213/3/6 209/3/6 214/3/6
f 214/3/6 209/3/6 215/3/6
f 211/3/6 212/3/6 216/3/6
f 210/3/6 211/3/6 216/3/6
f 216/3/6 212/3/6 217/3/6
f 217/3/6 212/3/6 218/3/6
f 214/3/6 215/3/6 219/3/6
f 216/3/6 217/3/6 219/3/6
f 215/3/6 216/3/6 219/3/6
f 219/3/6 217/3/6 220/3/6
f 221/2/6 222/2/6 223/2/6
f 223/2/6 222/2/6 224/2/6
f 225/2/6 226/2/6 227/2/6
f 227/2/6 226/2/6 228/2/6
